<svg xmlns="http://www.w3.org/2000/svg" width="15" height="20" viewBox="0, 0, 15, 20"><path d="M14.225 5.604L4.936 1.192a.935.935 0 0 0-1.243.442l-.316.666 10.975 5.213.316-.666a.935.935 0 0 0-.443-1.243zM.711 5.973a.47.47 0 0 0-.467.508l.949 11.387A2.338 2.338 0 0 0 3.51 20h5.31c1.2 0 2.218-.937 2.317-2.132l.869-10.43-3.085-1.465H.711zM8.65 1.367a.744.744 0 0 1 .425-.384.743.743 0 0 1 .572.029l1.741.827a.749.749 0 0 1 .355.997l-.213.449.848.402.213-.449c.399-.84.04-1.848-.8-2.247L10.049.164A1.672 1.672 0 0 0 8.76.099a1.675 1.675 0 0 0-.958.865l-.213.449.848.403.213-.449z"/></svg>